<svg width="1412" height="1909" viewBox="0 0 1412 1909" fill="none" xmlns="http://www.w3.org/2000/svg">
<g opacity="0.1">
<rect y="7" width="1412" height="1902" fill="white"/>
<path d="M125.021 284L405.95 452M125.021 284H810.429M125.021 284L12.7472 787M125.021 284L76.9736 59.5L646.186 2L1105.33 143M405.95 452L810.429 284M405.95 452L329.467 746.5L610.396 1200L999.186 938.5M810.429 284L1155.58 509L1400.23 333.5M810.429 284L714.335 656.5M810.429 284L1105.33 143M999.186 938.5L714.335 656.5M999.186 938.5L742.281 1523L329.467 1605L125.021 1171.5L12.7472 787M714.335 656.5L1235.5 689L1339.93 938.5L1023.21 1134.5L1071.26 1237L1179.61 1171.5L1215.4 1237L1127.64 1294L1371.8 1862.5L1127.64 1633.5L554.014 1862.5L12.7472 1736V787M1400.23 2L1105.33 143" stroke="#FF7500" stroke-width="3" stroke-dasharray="20 20"/>
<g clip-path="url(#clip0_1_855)">
<path d="M572.644 197C576.959 197 580.489 200.6 580.489 205C580.489 209.4 576.959 213 572.644 213C568.33 213 564.8 209.4 564.8 205C564.8 200.6 568.33 197 572.644 197ZM607.944 225H584.411V277H576.567V253H568.722V277H560.878V225H537.344V217H607.944V225Z" fill="#F29D38"/>
</g>
<g clip-path="url(#clip1_1_855)">
<path d="M539.405 1551.67L532.744 1547.75C509.105 1533.89 493.501 1524.75 490.34 1509.98C487.765 1497.94 495.015 1486.42 506.818 1483.79C513.486 1482.31 520.563 1484.05 525.81 1488.12C528.917 1482.19 534.639 1477.6 541.307 1476.12C553.11 1473.49 564.407 1480.89 566.982 1492.92C570.142 1507.7 559.688 1522.63 543.866 1545.31L539.405 1551.67Z" fill="#F29D38"/>
</g>
<g clip-path="url(#clip2_1_855)">
<path d="M1134.47 1044.34L1122.57 1023.63L1136.1 1015.54L1148 1036.24L1164.92 1026.13L1149.05 998.524L1159.2 992.455L1107.52 981.627L1091.53 1032.91L1101.68 1026.84L1117.55 1054.45L1134.47 1044.34Z" fill="#F29D38"/>
</g>
<g clip-path="url(#clip3_1_855)">
<path d="M712.864 568C695.787 568 681.976 582.085 681.976 599.5C681.976 623.125 712.864 658 712.864 658C712.864 658 743.751 623.125 743.751 599.5C743.751 582.085 729.94 568 712.864 568ZM712.864 610.75C706.775 610.75 701.833 605.71 701.833 599.5C701.833 593.29 706.775 588.25 712.864 588.25C718.953 588.25 723.895 593.29 723.895 599.5C723.895 605.71 718.953 610.75 712.864 610.75Z" fill="#F29D38"/>
</g>
<path d="M983.532 655.031C981.288 654.909 979.375 656.683 979.256 658.971C979.136 661.259 980.854 663.23 983.098 663.352C985.342 663.474 987.275 661.701 987.395 659.413C987.514 657.124 985.776 655.152 983.532 655.031ZM973.03 621.08L972.813 625.241L976.893 625.462L983.412 641.651L980.392 646.598C980.036 647.163 979.816 647.84 979.778 648.568C979.659 650.856 981.397 652.828 983.641 652.95L1008.12 654.279L1008.34 650.119L984.715 648.836C984.429 648.82 984.217 648.579 984.232 648.288L984.306 648.042L986.319 644.75L1001.52 645.576C1003.05 645.659 1004.44 644.879 1005.2 643.627L1013.21 630.521C1013.38 630.239 1013.48 629.89 1013.5 629.536C1013.56 628.392 1012.69 627.406 1011.57 627.345L981.401 625.707L979.701 621.442L973.03 621.08ZM1003.93 656.138C1001.69 656.016 999.774 657.79 999.655 660.079C999.535 662.367 1001.25 664.338 1003.5 664.46C1005.74 664.582 1007.67 662.809 1007.79 660.52C1007.91 658.232 1006.18 656.26 1003.93 656.138Z" fill="#F29D38"/>
<g clip-path="url(#clip4_1_855)">
<path d="M622.967 1076.69L602.069 1109.82L614.984 1129.88C626.93 1148.44 650.693 1157.36 670.323 1150.25C684.53 1134.71 685.948 1108.93 674.002 1090.37L661.087 1070.3L622.967 1076.69ZM650.851 1134.58L629.125 1129.98L630.713 1122.17L644.759 1125.11L652.181 1088.61L659.86 1090.27L650.851 1134.58Z" fill="#F29D38"/>
</g>
<g clip-path="url(#clip5_1_855)">
<path d="M334.252 1722.28L272.867 1708.98C268.647 1708.06 264.498 1710.84 263.602 1715.15L253.781 1762.09C252.884 1766.39 255.604 1770.66 259.824 1771.58L321.209 1784.88C325.429 1785.79 329.616 1783.02 330.512 1778.72L340.295 1731.77C341.191 1727.46 338.472 1723.19 334.252 1722.28ZM322.839 1777.05L261.454 1763.75L269.606 1724.63L296.223 1750.84L330.991 1737.93L322.839 1777.05ZM297.853 1743.02L271.236 1716.8L332.622 1730.1L297.853 1743.02Z" fill="#F29D38"/>
</g>
<g clip-path="url(#clip6_1_855)">
<path d="M679.525 189.04L640.303 189C635.988 189 632.498 192.6 632.498 197V269C632.498 273.4 635.988 277 640.303 277H679.525C683.839 277 687.369 273.4 687.369 269V197C687.369 192.6 683.839 189.04 679.525 189.04ZM679.525 261H640.303V205H679.525V261Z" fill="#F29D38"/>
</g>
<path d="M42.9875 1019.5L101.037 1089.08L110.435 998.227L84.1939 1006.46L94.0838 1066.15L69.2056 1011.19L42.9875 1019.5Z" fill="#F29D38"/>
<path d="M468.953 905.596L395.849 852.804L408.75 943.204L432.183 928.613L408.141 873.27L445.561 920.255L468.953 905.596Z" fill="#F29D38"/>
</g>
<defs>
<clipPath id="clip0_1_855">
<rect width="94.1333" height="96" fill="white" transform="translate(525.578 189)"/>
</clipPath>
<clipPath id="clip1_1_855">
<rect width="94.219" height="95.916" fill="white" transform="matrix(0.976128 -0.217194 0.209203 0.977872 475.569 1478.46)"/>
</clipPath>
<clipPath id="clip2_1_855">
<rect width="94.6142" height="95.5261" fill="white" transform="matrix(0.858316 -0.513121 0.498341 0.866981 1060.96 995.549)"/>
</clipPath>
<clipPath id="clip3_1_855">
<rect width="105.9" height="108" fill="white" transform="translate(659.914 559)"/>
</clipPath>
<clipPath id="clip4_1_855">
<rect width="94.6994" height="95.4416" fill="white" transform="matrix(0.830952 -0.556344 0.541284 0.84084 581.469 1099.69)"/>
</clipPath>
<clipPath id="clip5_1_855">
<rect width="94.2147" height="95.9201" fill="white" transform="matrix(0.977318 0.211778 -0.203968 0.978977 260.781 1690)"/>
</clipPath>
<clipPath id="clip6_1_855">
<rect width="94.1333" height="96" fill="white" transform="translate(612.847 185)"/>
</clipPath>
</defs>
</svg>
