<svg width="19" height="18" viewBox="0 0 19 18" fill="none" xmlns="http://www.w3.org/2000/svg">
<g clip-path="url(#clip0_669_642)">
<path d="M9.41 6.855C10.37 6.9 10.6175 7.7175 10.6325 8.1H11.975C11.915 6.615 10.8575 5.7075 9.3875 5.7075C7.73 5.7075 6.5 6.75 6.5 9.105C6.5 10.56 7.1975 12.285 9.38 12.285C11.045 12.285 11.9375 11.0475 11.96 10.0725H10.6175C10.595 10.515 10.28 11.1075 9.395 11.1525C8.4125 11.1225 8 10.3575 8 9.105C8 6.9375 8.96 6.87 9.41 6.855ZM9.5 1.5C5.36 1.5 2 4.86 2 9C2 13.14 5.36 16.5 9.5 16.5C13.64 16.5 17 13.14 17 9C17 4.86 13.64 1.5 9.5 1.5ZM9.5 15C6.1925 15 3.5 12.3075 3.5 9C3.5 5.6925 6.1925 3 9.5 3C12.8075 3 15.5 5.6925 15.5 9C15.5 12.3075 12.8075 15 9.5 15Z" fill="black"/>
</g>
<defs>
<clipPath id="clip0_669_642">
<rect width="18" height="18" fill="white" transform="translate(0.5)"/>
</clipPath>
</defs>
</svg>
